<svg width="24" height="24" viewBox="0 0 24 24" fill="none" xmlns="http://www.w3.org/2000/svg">
<path fill-rule="evenodd" clip-rule="evenodd" d="M0 12C0 5.37259 5.37258 1.79646e-06 12 1.79646e-06C12.4623 1.79646e-06 12.8372 0.374837 12.8372 0.837211C12.8372 1.29958 12.4623 1.67442 12 1.67442C6.29734 1.67442 1.67442 6.29734 1.67442 12C1.67442 17.7026 6.29734 22.3256 12 22.3256C17.7026 22.3256 22.3256 17.7026 22.3256 12C22.3256 11.5376 22.7004 11.1628 23.1628 11.1628C23.6251 11.1628 24 11.5376 24 12C24 18.6275 18.6274 24 12 24C5.37258 24 0 18.6275 0 12ZM17.3252 1.1452C18.8521 -0.381734 21.3278 -0.381734 22.8548 1.1452C24.3817 2.67215 24.3817 5.14781 22.8548 6.67476L15.4337 14.0959C15.0192 14.5104 14.7595 14.77 14.4699 14.9961C14.1286 15.2622 13.7594 15.4904 13.3687 15.6766C13.037 15.8346 12.6886 15.9507 12.1326 16.136L8.89033 17.2168C8.29172 17.4163 7.63177 17.2606 7.1856 16.8144C6.73944 16.3682 6.58364 15.7083 6.78317 15.1096L7.86392 11.8674C8.04924 11.3114 8.16534 10.963 8.32341 10.6313C8.5096 10.2406 8.73779 9.87137 9.00395 9.53014C9.22993 9.24041 9.48959 8.98079 9.90406 8.56633L17.3252 1.1452ZM21.6707 2.3292C20.7977 1.45617 19.3823 1.45617 18.5092 2.3292L18.0888 2.74962C18.1142 2.85663 18.1496 2.98412 18.1989 3.12632C18.3589 3.58741 18.6616 4.19465 19.2335 4.7665C19.8053 5.33835 20.4126 5.64107 20.8736 5.80105C21.0158 5.85039 21.1433 5.88584 21.2504 5.91118L21.6707 5.49077C22.5438 4.61772 22.5438 3.20224 21.6707 2.3292ZM19.9313 7.23024C19.3554 6.98254 18.6845 6.58544 18.0494 5.95049C17.4145 5.31555 17.0174 4.64464 16.7697 4.06868L11.1265 9.71192C10.6616 10.1769 10.4792 10.3613 10.3242 10.5599C10.1329 10.8052 9.96881 11.0708 9.83497 11.3517C9.72654 11.5792 9.64317 11.8246 9.43523 12.4484L8.95312 13.8948L10.1052 15.0469L11.5516 14.5648C12.1754 14.3568 12.4208 14.2734 12.6483 14.165C12.9292 14.0312 13.1947 13.8671 13.4401 13.6758C13.6387 13.5208 13.8231 13.3384 14.288 12.8735L19.9313 7.23024Z" fill="#60235A"/>
</svg>
